<svg width="453" height="134" viewBox="0 0 453 134" fill="none" xmlns="http://www.w3.org/2000/svg">
<path d="M0 113V4L38 25V134L0 113Z" fill="#81B434"/>
<path d="M82 0L45 20V87L82 68V0Z" fill="#81B434"/>
<path d="M110.96 90V43.8H126.866C129.352 43.8 131.596 44.416 133.598 45.648C135.622 46.88 137.228 48.541 138.416 50.631C139.626 52.721 140.231 55.031 140.231 57.561C140.231 60.135 139.615 62.467 138.383 64.557C137.173 66.625 135.556 68.275 133.532 69.507C131.508 70.739 129.286 71.355 126.866 71.355H117.824V90H110.96ZM117.824 64.491H126.173C127.493 64.491 128.692 64.161 129.77 63.501C130.87 62.841 131.739 61.961 132.377 60.861C133.037 59.761 133.367 58.518 133.367 57.132C133.367 55.746 133.037 54.503 132.377 53.403C131.739 52.281 130.87 51.401 129.77 50.763C128.692 50.103 127.493 49.773 126.173 49.773H117.824V64.491ZM146.538 90V40.5H153.402V90H146.538ZM186.521 57H193.385V90H186.488L186.224 85.215C185.256 86.909 183.947 88.273 182.297 89.307C180.647 90.341 178.7 90.858 176.456 90.858C174.036 90.858 171.759 90.407 169.625 89.505C167.491 88.581 165.61 87.305 163.982 85.677C162.376 84.049 161.122 82.179 160.22 80.067C159.318 77.933 158.867 75.645 158.867 73.203C158.867 70.849 159.307 68.638 160.187 66.57C161.067 64.48 162.288 62.654 163.85 61.092C165.412 59.53 167.216 58.309 169.262 57.429C171.33 56.527 173.541 56.076 175.895 56.076C178.293 56.076 180.405 56.626 182.231 57.726C184.079 58.804 185.608 60.19 186.818 61.884L186.521 57ZM176.291 84.225C178.227 84.225 179.921 83.752 181.373 82.806C182.825 81.838 183.947 80.54 184.739 78.912C185.553 77.284 185.96 75.48 185.96 73.5C185.96 71.498 185.553 69.683 184.739 68.055C183.925 66.427 182.792 65.14 181.34 64.194C179.91 63.226 178.227 62.742 176.291 62.742C174.377 62.742 172.628 63.226 171.044 64.194C169.46 65.162 168.206 66.46 167.282 68.088C166.358 69.716 165.896 71.52 165.896 73.5C165.896 75.502 166.369 77.317 167.315 78.945C168.283 80.551 169.548 81.838 171.11 82.806C172.694 83.752 174.421 84.225 176.291 84.225ZM229.67 69.309V90H222.806V70.992C222.806 69.518 222.443 68.176 221.717 66.966C221.013 65.756 220.056 64.799 218.846 64.095C217.658 63.369 216.316 63.006 214.82 63.006C213.368 63.006 212.037 63.369 210.827 64.095C209.617 64.799 208.649 65.756 207.923 66.966C207.197 68.176 206.834 69.518 206.834 70.992V90H199.97V57H206.834V60.498C207.978 59.134 209.386 58.056 211.058 57.264C212.73 56.472 214.534 56.076 216.47 56.076C218.912 56.076 221.134 56.67 223.136 57.858C225.138 59.046 226.722 60.641 227.888 62.643C229.076 64.645 229.67 66.867 229.67 69.309ZM253.681 63.864H246.751L246.718 90H239.854L239.887 63.864H234.64V57H239.887L239.854 46.638H246.718L246.751 57H253.681V63.864ZM284.489 57H291.353V90H284.456L284.192 85.215C283.224 86.909 281.915 88.273 280.265 89.307C278.615 90.341 276.668 90.858 274.424 90.858C272.004 90.858 269.727 90.407 267.593 89.505C265.459 88.581 263.578 87.305 261.95 85.677C260.344 84.049 259.09 82.179 258.188 80.067C257.286 77.933 256.835 75.645 256.835 73.203C256.835 70.849 257.275 68.638 258.155 66.57C259.035 64.48 260.256 62.654 261.818 61.092C263.38 59.53 265.184 58.309 267.23 57.429C269.298 56.527 271.509 56.076 273.863 56.076C276.261 56.076 278.373 56.626 280.199 57.726C282.047 58.804 283.576 60.19 284.786 61.884L284.489 57ZM274.259 84.225C276.195 84.225 277.889 83.752 279.341 82.806C280.793 81.838 281.915 80.54 282.707 78.912C283.521 77.284 283.928 75.48 283.928 73.5C283.928 71.498 283.521 69.683 282.707 68.055C281.893 66.427 280.76 65.14 279.308 64.194C277.878 63.226 276.195 62.742 274.259 62.742C272.345 62.742 270.596 63.226 269.012 64.194C267.428 65.162 266.174 66.46 265.25 68.088C264.326 69.716 263.864 71.52 263.864 73.5C263.864 75.502 264.337 77.317 265.283 78.945C266.251 80.551 267.516 81.838 269.078 82.806C270.662 83.752 272.389 84.225 274.259 84.225ZM335.178 90.858C332.054 90.858 329.117 90.242 326.367 89.01C323.617 87.756 321.197 86.04 319.107 83.862C317.039 81.662 315.411 79.11 314.223 76.206C313.057 73.302 312.474 70.2 312.474 66.9C312.474 63.6 313.057 60.498 314.223 57.594C315.411 54.69 317.039 52.149 319.107 49.971C321.197 47.771 323.617 46.055 326.367 44.823C329.117 43.569 332.054 42.942 335.178 42.942C338.918 42.942 342.361 43.811 345.507 45.549C348.653 47.287 351.26 49.597 353.328 52.479L347.223 55.746C345.793 53.942 344.022 52.501 341.91 51.423C339.798 50.345 337.554 49.806 335.178 49.806C332.978 49.806 330.921 50.257 329.007 51.159C327.093 52.061 325.41 53.293 323.958 54.855C322.506 56.417 321.373 58.232 320.559 60.3C319.745 62.368 319.338 64.568 319.338 66.9C319.338 69.254 319.745 71.465 320.559 73.533C321.373 75.579 322.506 77.394 323.958 78.978C325.432 80.54 327.126 81.772 329.04 82.674C330.954 83.554 333 83.994 335.178 83.994C337.598 83.994 339.853 83.455 341.943 82.377C344.055 81.277 345.815 79.825 347.223 78.021L353.328 81.354C351.26 84.236 348.653 86.546 345.507 88.284C342.361 90 338.918 90.858 335.178 90.858ZM383.683 57H390.547V90H383.65L383.386 85.215C382.418 86.909 381.109 88.273 379.459 89.307C377.809 90.341 375.862 90.858 373.618 90.858C371.198 90.858 368.921 90.407 366.787 89.505C364.653 88.581 362.772 87.305 361.144 85.677C359.538 84.049 358.284 82.179 357.382 80.067C356.48 77.933 356.029 75.645 356.029 73.203C356.029 70.849 356.469 68.638 357.349 66.57C358.229 64.48 359.45 62.654 361.012 61.092C362.574 59.53 364.378 58.309 366.424 57.429C368.492 56.527 370.703 56.076 373.057 56.076C375.455 56.076 377.567 56.626 379.393 57.726C381.241 58.804 382.77 60.19 383.98 61.884L383.683 57ZM373.453 84.225C375.389 84.225 377.083 83.752 378.535 82.806C379.987 81.838 381.109 80.54 381.901 78.912C382.715 77.284 383.122 75.48 383.122 73.5C383.122 71.498 382.715 69.683 381.901 68.055C381.087 66.427 379.954 65.14 378.502 64.194C377.072 63.226 375.389 62.742 373.453 62.742C371.539 62.742 369.79 63.226 368.206 64.194C366.622 65.162 365.368 66.46 364.444 68.088C363.52 69.716 363.058 71.52 363.058 73.5C363.058 75.502 363.531 77.317 364.477 78.945C365.445 80.551 366.71 81.838 368.272 82.806C369.856 83.752 371.583 84.225 373.453 84.225ZM397.132 90V57H403.996V60.498C405.14 59.134 406.548 58.056 408.22 57.264C409.892 56.472 411.696 56.076 413.632 56.076C414.864 56.076 416.085 56.241 417.295 56.571L414.556 63.501C413.698 63.171 412.84 63.006 411.982 63.006C410.53 63.006 409.199 63.369 407.989 64.095C406.779 64.799 405.811 65.756 405.085 66.966C404.359 68.176 403.996 69.518 403.996 70.992V90H397.132ZM434.082 90.858C431.046 90.858 428.274 90.077 425.766 88.515C423.28 86.953 421.289 84.863 419.793 82.245C418.319 79.605 417.582 76.69 417.582 73.5C417.582 71.08 418.011 68.825 418.869 66.735C419.727 64.623 420.904 62.775 422.4 61.191C423.918 59.585 425.678 58.331 427.68 57.429C429.682 56.527 431.816 56.076 434.082 56.076C436.612 56.076 438.933 56.604 441.045 57.66C443.157 58.694 444.961 60.135 446.457 61.983C447.953 63.809 449.053 65.921 449.757 68.319C450.461 70.695 450.67 73.225 450.384 75.909H424.941C425.227 77.427 425.777 78.802 426.591 80.034C427.427 81.244 428.483 82.201 429.759 82.905C431.057 83.609 432.498 83.972 434.082 83.994C435.754 83.994 437.272 83.576 438.636 82.74C440.022 81.904 441.155 80.749 442.035 79.275L448.998 80.892C447.678 83.818 445.687 86.216 443.025 88.086C440.363 89.934 437.382 90.858 434.082 90.858ZM424.71 70.662H443.454C443.234 69.078 442.673 67.648 441.771 66.372C440.891 65.074 439.78 64.051 438.438 63.303C437.118 62.533 435.666 62.148 434.082 62.148C432.52 62.148 431.068 62.522 429.726 63.27C428.406 64.018 427.306 65.041 426.426 66.339C425.568 67.615 424.996 69.056 424.71 70.662Z" fill="#81B434"/>
</svg>
