<svg width="62" height="66" viewBox="0 0 62 66" fill="none" xmlns="http://www.w3.org/2000/svg">
<path d="M38.4589 50.0371C38.4601 49.2155 38.4619 48.8825 38.4615 48.5494C38.4512 40.0996 34.4693 37.2972 26.2321 39.8496C23.7241 40.6267 23.6036 42.5965 23.5846 44.6171C23.5343 49.9454 23.5145 55.275 23.568 60.6032C23.6033 64.1106 22.0209 65.8976 18.4654 65.8306C18.299 65.8275 18.1324 65.8332 17.9659 65.8351C4.04406 65.9951 0.141105 66.9834 0.861679 49.5229C1.18413 41.7094 1.03274 33.8693 0.868286 26.0461C0.79087 22.3634 2.0749 19.6758 5.00965 17.5147C11.8426 12.483 18.6267 7.38322 25.3671 2.228C29.2095 -0.710799 32.8089 -0.776022 36.6998 2.24448C43.2704 7.34524 49.9686 12.2836 56.6687 17.2146C59.7099 19.4528 61.2215 22.1883 61.1547 26.1036C60.9814 36.2587 61.1365 46.419 61.0799 56.5767C61.0442 62.9737 58.3285 65.7915 52.0198 65.813C37.2787 65.8631 38.4321 67.1531 38.4581 52.5238C38.4593 51.8577 38.4585 51.1916 38.4589 50.0371Z" fill="#7D7D7D"/>
</svg>
