<svg width="72" height="74" viewBox="0 0 72 74" fill="none" xmlns="http://www.w3.org/2000/svg">
<path d="M41.8896 6.84993C49.5058 1.09121 58.0377 0.144551 66.8217 0.267842C69.1886 0.301045 71.0004 1.07473 71.0958 4.00167C71.3783 12.6641 70.3686 21.0042 65.2059 28.3089C60.5656 34.8746 54.1286 38.6507 46.2912 36.1847C39.9254 34.1818 37.3156 37.4134 33.4972 42.2373C41.9858 42.2373 49.5534 42.2316 57.1211 42.2414C58.9422 42.2437 61.0138 41.9684 61.8798 44.084C62.7743 46.2691 61.6777 47.9721 59.4785 47.9309C56.1597 47.8687 55.7586 50.0238 55.2406 52.3422C54.1521 57.214 52.9118 62.0578 52.0137 66.9644C51.1874 71.4787 48.722 73.6607 44.1499 73.6055C37.4851 73.525 30.8195 73.4602 24.1544 73.4715C19.6338 73.4791 16.9915 71.4169 16.1715 66.9115C15.3971 62.6566 14.5075 58.4207 13.5718 54.1978C12.8885 51.1138 13.2409 47.2266 8.12539 47.5114C6.77468 47.5867 5.87336 46.0456 6.20542 44.5244C6.57035 42.8529 7.79816 42.0741 9.51371 42.0802C13.6798 42.0951 17.8463 42.0749 22.0119 42.1265C24.1193 42.1526 26.7136 41.9128 26.53 39.517C26.3582 37.2754 24.3269 35.172 21.4659 36.0043C6.76933 40.2797 -0.469502 24.6386 0.741649 11.7599C0.895778 10.1209 1.52603 8.68886 3.19458 8.38308C9.57277 7.21431 23.1741 10.0755 26.949 17.8399C28.5402 21.1128 29.6114 24.4033 28.3258 27.9145C27.3597 30.5533 28.1526 32.322 30.0944 34.0448C31.2787 35.0954 32.0773 34.8547 33.0224 33.8631C34.6994 32.1038 36.6987 30.8402 35.525 27.5717C32.5955 19.4142 35.0205 12.5598 41.8896 6.84993Z" fill="#7F7F7F"/>
</svg>
