<svg width="86" height="68" viewBox="0 0 86 68" fill="none" xmlns="http://www.w3.org/2000/svg">
<path d="M35.8644 56.2253C34.442 54.7777 33.2032 53.6505 32.1194 52.3901C29.1865 48.9791 26.125 47.2953 21.042 47.8002C11.0824 48.7894 2.86852 39.7678 1.22051 27.3467C1.08928 26.3579 1.05913 25.3542 1.01103 24.3561C0.504349 13.8449 1.57072 12.832 12.1719 14.4392C19.3582 15.5286 26.1798 17.4801 31.0217 23.5618C33.397 26.5453 34.724 29.8397 34.783 33.6423C34.7985 34.6439 34.8179 35.7148 33.7558 36.2607C32.6177 36.8456 31.8658 36.0112 31.1809 35.3214C29.539 33.6677 27.9655 31.9463 26.3444 30.2716C24.9381 28.8188 23.2557 27.9117 21.5889 29.5935C20.0928 31.1031 20.9863 32.7546 22.2524 33.9782C28.1007 39.6301 34.0059 45.2233 40.1367 51.0722C42.5298 38.8807 53.1503 32.5453 60.3405 23.6284C61.1736 22.5952 62.2009 21.7208 63.1017 20.7394C64.5577 19.1528 66.6776 17.3401 64.4305 15.2843C62.1795 13.225 60.4965 15.5703 59.0483 17.0803C54.3219 22.0087 49.685 27.0227 44.9761 31.9679C44.2121 32.7702 43.4978 34.0072 42.129 33.5819C40.7425 33.1511 40.9097 31.7004 40.7176 30.6158C39.1099 21.5413 42.1259 14.1162 49.3 8.56996C58.9358 1.12062 70.2453 -0.30208 81.9851 0.277235C84.126 0.382887 85.4238 1.59736 85.4789 3.76167C85.7905 16.0074 84.219 27.793 75.8116 37.475C69.8327 44.3603 62.0939 46.9463 53.2887 44.4708C49.4694 43.397 48.1307 44.7475 47.0657 47.8353C45.3859 52.7055 46.0881 57.7364 45.9287 62.7101C45.8605 64.8352 46.3641 67.5817 43.2676 67.6834C40.2721 67.7818 40.0949 65.1138 40.2349 62.9418C40.4458 59.6693 37.7976 58.4322 35.8644 56.2253Z" fill="#7F7F7F"/>
</svg>
