<svg width="80" height="73" viewBox="0 0 80 73" fill="none" xmlns="http://www.w3.org/2000/svg">
<path d="M51.8291 35.8489C46.809 48.1982 41.9454 60.1851 37.0706 72.1674C37.0168 72.2997 36.8169 72.3725 36.447 72.6551C33.944 68.9283 32.931 64.5838 31.2507 60.5592C27.8634 52.4457 24.6652 44.2535 21.3591 36.1059C20.3167 33.537 19.9501 31.8841 23.8831 32.0015C32.5115 32.2588 41.1541 32.1634 49.7885 32.0391C52.7791 31.996 53.3354 33.0079 51.8291 35.8489Z" fill="#7F7F7F"/>
<path d="M39.9816 29.2099C34.3317 29.2095 29.1761 29.1379 24.0237 29.2354C20.9749 29.293 20.7026 28.3094 22.0022 25.7182C27.3423 15.0708 31.636 12.8548 43.3932 14.8118C44.9418 15.0696 45.7193 15.8519 46.3736 17.0691C47.9472 19.9968 49.4629 22.9597 51.1523 25.8197C52.7927 28.5967 51.6775 29.3013 48.9564 29.2244C46.1321 29.1446 43.3038 29.2086 39.9816 29.2099Z" fill="#7F7F7F"/>
<path d="M30.0837 66.615C22.6248 60.0319 17.0674 51.5185 10.3447 44.0012C7.18249 40.4653 4.33411 36.6488 0.624268 32.0721C6.0661 32.0721 10.4562 32.1016 14.8455 32.0566C16.4616 32.04 17.2166 32.948 17.7349 34.2863C21.8647 44.9494 26.0029 55.6091 30.0837 66.615Z" fill="#848484"/>
<path d="M43.33 66.8861C44.1572 59.5182 48.4661 53.1777 50.7131 46.0819C51.0131 45.1347 51.4858 44.243 51.8623 43.319C57.0723 30.5333 57.0717 30.533 72.2337 32.6322C62.4954 44.2406 53.0557 55.4928 43.33 66.8861Z" fill="#848484"/>
<path d="M22.5552 14.6419C23.8856 14.958 24.3531 15.5466 23.8773 16.5053C23.2156 17.8387 22.4673 19.1294 21.7469 20.4334C16.1104 30.6376 14.9607 31.1527 1.85553 28.8183C7.2652 24.0352 12.2284 19.535 17.3374 15.207C18.6431 14.1011 20.5356 14.6299 22.5552 14.6419Z" fill="#848484"/>
<path d="M70.2743 29.1045C69.1967 29.4049 68.3742 29.4923 67.551 29.4984C55.311 29.5899 54.1972 28.7619 49.7281 17.2935C48.9403 15.2716 49.2189 14.552 51.3574 14.6226C52.9953 14.6767 54.8509 14.2224 56.14 15.429C60.9293 19.9114 66.6035 23.4495 70.2743 29.1045Z" fill="#7F7F7F"/>
<path d="M69.2328 47.0912C70.0159 46.7924 70.7665 46.8501 70.9477 46.5565C72.7783 43.5889 73.8579 40.9261 76.8906 46.2134C78.171 48.4458 81.745 48.7248 76.6988 50.1763C75.7432 50.4512 75.8697 51.4839 75.643 52.2476C75.3984 53.0713 74.3165 54.1454 74.1179 53.7794C72.7648 51.2846 68.8709 50.8275 69.2328 47.0912Z" fill="#848484"/>
<path d="M15.2511 6.75189C14.3188 7.34293 13.2295 7.41931 12.8759 7.96896C10.8989 11.042 10.236 12.4972 6.71916 8.34244C4.23735 5.41049 3.28179 5.59699 7.11443 4.35635C8.28002 3.9791 7.98088 2.71393 8.39665 1.87781C8.91503 0.835083 10.5682 0.374452 10.6106 1.06455C10.8101 4.31592 14.5591 4.06616 15.2511 6.75189Z" fill="#848484"/>
</svg>
