<svg width="69" height="76" viewBox="0 0 69 76" fill="none" xmlns="http://www.w3.org/2000/svg">
<path d="M20.81 18.2428C16.7272 15.0484 14.2593 11.1817 12.8993 6.58652C12.3913 4.86967 11.2231 2.96924 12.6954 1.39934C14.4063 -0.424935 16.5266 0.966735 18.2899 1.56716C26.1754 4.2522 31.3449 9.78654 34.3235 18.4735C37.2285 9.48889 42.7167 4.10997 50.7295 1.37666C52.2371 0.862419 54.0211 -0.14502 55.4985 1.08112C57.23 2.51826 56.3113 4.60641 55.8152 6.23949C53.5518 13.6901 48.8676 19.2451 41.4324 21.6883C37.8075 22.8794 37.9569 25.0945 38.0961 27.7835C38.2887 31.5068 41.1976 30.0556 43.0044 30.1052C49.1626 30.2744 55.3284 30.1427 61.491 30.1778C67.2148 30.2104 68.008 31.0512 68.0524 36.9295C68.0651 38.5948 68.1539 40.2709 68.0059 41.924C67.6056 46.3975 65.1688 49.0519 60.6088 49.0735C43.1202 49.1565 25.6305 49.168 8.14202 49.0752C3.54534 49.0508 0.736565 46.2179 0.302972 41.6863C0.160821 40.2001 0.244562 38.6903 0.257501 37.1916C0.308649 31.2733 1.35162 30.2036 7.23528 30.1759C13.7311 30.1454 20.2273 30.1922 26.723 30.1487C28.29 30.1383 30.3945 30.623 30.3005 27.9786C30.2241 25.8292 31.4288 23.0893 28.1495 22.1033C25.5657 21.3264 23.2054 20.1448 20.81 18.2428Z" fill="#7F7F7F"/>
<path d="M44.9904 52.8823C48.653 52.8836 51.8228 53.0012 54.9799 52.8513C57.7434 52.7201 58.5674 53.7914 57.8796 56.407C56.7381 60.748 55.803 65.1455 54.5797 69.4622C53.5067 73.2483 50.936 75.277 46.8657 75.2622C38.3724 75.2313 29.8788 75.245 21.3853 75.2504C17.5217 75.2528 15.1108 73.2911 14.0818 69.6752C12.853 65.3577 11.8937 60.9607 10.5784 56.6715C9.68018 53.7422 10.5025 52.808 13.5161 52.8404C23.8403 52.9514 34.1666 52.8826 44.9904 52.8823Z" fill="#7D7D7D"/>
</svg>
