<svg width="91" height="74" viewBox="0 0 91 74" fill="none" xmlns="http://www.w3.org/2000/svg">
<path d="M45.1017 53.1648C45.1017 58.9743 44.9447 64.3112 45.1614 69.6329C45.2886 72.7589 44.5457 74.1338 41.0773 73.9938C34.5909 73.7321 28.0843 74.0251 21.5912 73.8717C12.4719 73.6562 4.10406 67.1107 1.14812 58.119C-1.71583 49.4074 1.16039 39.4628 8.53161 33.9328C10.9128 32.1464 11.7582 30.6153 11.4248 27.4779C10.2438 16.3655 18.3161 5.1055 29.4278 1.62313C40.4567 -1.83329 52.9478 3.00405 58.5284 13.3207C60.0728 16.1759 61.7371 17.1688 64.909 17.5811C80.8665 19.6558 91.1083 32.3182 90.0575 48.1732C89.0847 62.8531 76.6557 73.8386 60.9283 73.9195C50.8729 73.9713 50.8729 73.9712 50.8729 64.1296C50.873 58.3088 50.873 52.488 50.873 46.2737C54.6216 47.391 56.031 50.7164 58.5353 52.6781C60.4996 54.2169 62.2898 56.0055 64.4739 53.592C66.5309 51.3191 65.0495 49.3264 63.2568 47.5557C59.8205 44.1617 56.4997 40.6475 52.9932 37.3287C49.4697 33.9937 46.3765 33.9938 42.9427 37.302C39.4657 40.652 36.1468 44.1659 32.748 47.5974C30.9752 49.3873 29.5889 51.4564 31.6571 53.6704C33.8766 56.0466 35.8437 54.3296 37.6076 52.6262C39.8265 50.4833 42.0586 48.3541 45.1017 45.4357C45.1017 48.5213 45.1017 50.6036 45.1017 53.1648Z" fill="#7D7D7D"/>
</svg>
